<?xml version="1.0" encoding="UTF-8"?><svg id="Layer_2" xmlns="http://www.w3.org/2000/svg" viewBox="0 0 1075.07 1073.42"><defs><style>.cls-1{fill:none;}.cls-1,.cls-2,.cls-3,.cls-4{stroke:#303030;stroke-miterlimit:10;stroke-width:3px;}.cls-2{fill:#e6be6e;}.cls-3{fill:#deafd9;}.cls-5{fill:#fffaf7;}.cls-4{fill:#4f9fc4;}</style></defs><g id="Logo"><g><rect class="cls-5" width="1073.42" height="1073.42"/><rect class="cls-2" x="61.26" y="287.69" width="1012.27" height="593.85"/><g><polygon class="cls-3" points="120.32 450.12 256.5 244.32 112.16 152.9 2.22 335.32 120.32 450.12"/><polygon class="cls-3" points="742.67 319.35 529.79 194.52 619.14 48.89 798.16 164.28 742.67 319.35"/><path class="cls-3" d="M286.38,758.75l-103.46-403.24L112.16,152.9l111.51-84.73,114.89-5.24c18.14,7.55,45.05,1.25,57.39-14.04L489.97,6.4l129.07,42.51,33.02,217.3,81.02,400.33-446.7,92.2Z"/><path class="cls-3" d="M430.44,97.27L488.74,7.6c.22-.34-.12-.77-.51-.63l-100.57,37.17c-15.87,5.87-32.41,9.74-49.23,11.54l-113.14,12.11c-.18,.04-.21,.28-.05,.37l100.11,55.33c36.49,20.17,82.35,8.72,105.08-26.23Z"/></g><g><polygon class="cls-4" points="513.88 944.87 622.78 255.27 847.72 294.84 824.34 473.01 687.3 985.3 513.88 944.87"/><polygon class="cls-4" points="818 1011.78 824.34 473.01 847.72 294.84 1061.98 332.53 975.35 1030.66 818 1011.78"/><g><polygon class="cls-4" points="621.14 205.23 1073.42 284.79 1068 333.59 615.72 254.03 621.14 205.23"/><polygon class="cls-4" points="730.92 274.29 736.34 225.49 750.2 227.93 744.78 276.73 730.92 274.29"/><polygon class="cls-4" points="938.49 310.81 943.91 262.01 958.47 264.57 953.05 313.37 938.49 310.81"/></g><path class="cls-1" d="M598.38,412.38l.13-.05c63.2-17.89,99.4-72.13,94.86-143.02h0"/><path class="cls-1" d="M988.48,321.23c-18.16,67.69-2.94,130.78,49.89,171.27"/><ellipse class="cls-4" cx="849.58" cy="270.29" rx="15.31" ry="17.22" transform="translate(250.3 930.37) rotate(-65.41)"/><polygon class="cls-4" points="504.4 985.55 510.74 944.27 690.78 986.12 680.9 1027.45 504.4 985.55"/><polygon class="cls-4" points="814.22 1053.98 815.48 1011.48 978.61 1031.05 972.21 1070.96 814.22 1053.98"/></g></g></g></svg>